<?xml version="1.0" encoding="UTF-8"?>
<svg version="1.1" xmlns="http://www.w3.org/2000/svg" width="512" height="512">
<path d="M0 0 C0.99164154 -0.0038269 1.98328308 -0.00765381 3.00497437 -0.01159668 C5.10472629 -0.01431793 7.204512 -0.00694191 9.30419922 0.00976562 C12.49134747 0.03103584 15.67620629 0.01004139 18.86328125 -0.015625 C20.90885909 -0.0129791 22.95443551 -0.00784873 25 0 C25.94203278 -0.00809692 26.88406555 -0.01619385 27.85464478 -0.02453613 C35.9137866 0.08746224 42.40451984 2.24676538 49.1484375 6.65625 C59.78224777 17.77341529 60.2214209 30.0110255 60.8984375 44.53125 C65.14643856 44.84418072 69.39599076 45.09927917 73.6484375 45.34375 C74.855 45.43333984 76.0615625 45.52292969 77.3046875 45.61523438 C78.46484375 45.67646484 79.625 45.73769531 80.8203125 45.80078125 C82.42277832 45.90289917 82.42277832 45.90289917 84.05761719 46.00708008 C84.99508789 45.85005615 85.93255859 45.69303223 86.8984375 45.53125 C87.43905477 44.70461538 87.97967203 43.87798077 88.53667164 43.02629662 C90.8984375 40.53125 90.8984375 40.53125 94.75229168 39.99567604 C96.34459196 40.01472035 97.93669804 40.06329423 99.5275116 40.13467407 C100.40551963 40.15511737 101.28352766 40.17556066 102.188142 40.19662344 C105.09365079 40.27625653 107.99487793 40.39884991 110.8984375 40.53125 C111.87276867 40.57214862 112.84709984 40.61304725 113.8509562 40.65518522 C121.51626263 40.98674564 129.17410401 41.42707388 136.83325195 41.87646484 C139.37650944 42.0214686 141.91979442 42.16599103 144.46310425 42.31007385 C150.60050016 42.6591677 156.73756651 43.01359725 162.87449054 43.37087987 C167.86240274 43.66118739 172.85043341 43.94937237 177.83855247 44.23610306 C178.55264018 44.27715603 179.26672788 44.318209 180.0024546 44.36050601 C181.45364668 44.44393178 182.90483887 44.52735531 184.3560312 44.61077662 C197.89994829 45.38963966 211.44343127 46.17585032 224.98678585 46.9644254 C237.36699567 47.68505279 249.74770506 48.39665454 262.12867878 49.10402553 C274.87736905 49.83248155 287.62570832 50.56681115 300.37368935 51.30757868 C307.51689 51.7225619 314.6602043 52.13526537 321.80388832 52.54185104 C328.50789774 52.92348989 335.21137342 53.31344196 341.91457748 53.70901299 C344.37386832 53.85285474 346.83331952 53.99398421 349.29293251 54.13220787 C352.64863169 54.32122137 356.0036138 54.52001098 359.3585968 54.72128296 C360.33232013 54.7738215 361.30604345 54.82636004 362.30927354 54.88049066 C367.44189573 55.19983344 372.07585431 55.68290081 376.8984375 57.53125 C379.87796868 62.00054677 379.4155472 66.40519533 378.55343056 71.6169014 C378.07749407 73.7109265 377.53408775 75.77353196 376.95825195 77.84228516 C376.75170486 78.61929779 376.54515778 79.39631042 376.33235168 80.1968689 C375.65302317 82.74108361 374.95771431 85.28061144 374.26171875 87.8203125 C373.77959515 89.60974469 373.29834323 91.39941193 372.81791687 93.18930054 C371.8100711 96.93491045 370.79483708 100.67840732 369.77368164 104.42041016 C368.47650334 109.17446992 367.19294656 113.93206431 365.91442585 118.69117165 C364.92041075 122.38836371 363.92144622 126.08420361 362.92082787 129.77961349 C362.44674407 131.53092827 361.97357252 133.2824903 361.50139809 135.03432083 C349.77682291 178.44761828 349.77682291 178.44761828 328.12109375 190.98828125 C321.11519797 194.34261923 314.21041721 196.01645419 306.52124023 196.87475586 C305.62175376 196.9829471 304.72226728 197.09113834 303.79552364 197.20260811 C300.80869024 197.55951075 297.82045802 197.90280972 294.83203125 198.24609375 C292.68387459 198.49996086 290.53581569 198.75465638 288.3878479 199.01011658 C282.58066212 199.69819876 276.77213642 200.37425636 270.96321487 201.04750824 C264.88360412 201.75354356 258.80503778 202.46846789 252.72631836 203.18212891 C243.8774806 204.21993234 235.02811437 205.25306728 226.1782198 206.28181839 C212.23654246 207.90286065 198.29826017 209.55064774 184.36174011 211.21540833 C175.99248997 212.21483102 167.62208665 213.20440718 159.25127125 214.1906271 C153.56252688 214.86112482 147.87432225 215.53559779 142.18722534 216.21994019 C136.84628352 216.86225571 131.50399195 217.49188916 126.16044235 218.11212349 C124.2133381 218.34027659 122.26674416 218.57283902 120.32075882 218.8103466 C102.76537583 220.94852568 86.19695446 222.10617787 71.03125 211.2890625 C60.58288263 202.67777071 56.04550708 192.61144907 54.53103638 179.30260849 C54.18945234 175.4263332 53.88817047 171.54809693 53.6015625 167.66748047 C53.48686343 166.17994815 53.37157199 164.69246141 53.2557373 163.20501709 C53.00873779 160.01823236 52.76570117 156.83117966 52.52575684 153.64385605 C52.14582989 148.5999042 51.7558021 143.55676389 51.36425781 138.51370239 C50.39374256 125.99278985 49.43755062 113.47078749 48.48193359 100.94873047 C47.73806381 91.2043342 46.99071046 81.46022851 46.23366928 71.71684563 C45.84483966 66.70737192 45.46290579 61.69743537 45.08627319 56.68703055 C44.85036082 53.56812276 44.60843347 50.44970253 44.36488342 47.33138275 C44.25351329 45.88965912 44.14461931 44.44774166 44.03843689 43.00562668 C43.89269078 41.03090316 43.73708707 39.05691468 43.58105469 37.08297729 C43.49700378 35.98021894 43.41295288 34.87746059 43.32635498 33.74128532 C42.67241222 28.83571481 41.78274816 24.73712818 38.8359375 20.71875 C32.84312054 16.25601397 25.31688006 16.24817835 18.06640625 16.2578125 C16.4277272 16.23755142 14.78905534 16.21670125 13.15039062 16.1953125 C10.60483608 16.17261737 8.05956759 16.15618993 5.51391602 16.15039062 C3.0309087 16.14088538 0.54913683 16.10717578 -1.93359375 16.0703125 C-2.69404495 16.07535797 -3.45449615 16.08040344 -4.23799133 16.08560181 C-7.71728034 16.02073592 -9.738411 15.79709621 -12.58081055 13.71630859 C-14.81242435 10.50986398 -14.64584981 8.34126117 -14.1015625 4.53125 C-10.67208773 -0.82289338 -5.73761239 -0.04868798 0 0 Z " fill="#FDC068" transform="translate(133.1015625,100.46875)"/>
<path d="M0 0 C0.99164154 -0.0038269 1.98328308 -0.00765381 3.00497437 -0.01159668 C5.10472629 -0.01431793 7.204512 -0.00694191 9.30419922 0.00976562 C12.49134747 0.03103584 15.67620629 0.01004139 18.86328125 -0.015625 C20.90885909 -0.0129791 22.95443551 -0.00784873 25 0 C25.94203278 -0.00809692 26.88406555 -0.01619385 27.85464478 -0.02453613 C35.9137866 0.08746224 42.40451984 2.24676538 49.1484375 6.65625 C59.26137046 17.22886173 60.11854682 29.15814068 60.931427 43.04403687 C62.39552343 67.79660687 64.4554204 92.50573308 66.4609375 117.21875 C66.61625645 119.13486614 66.77156052 121.05098348 66.92684937 122.96710205 C67.00286534 123.90449722 67.07888132 124.8418924 67.15720081 125.80769348 C67.30867896 127.67604054 67.46003146 129.54439779 67.61125469 131.4127655 C67.97629012 135.91795586 68.34449087 140.42284093 68.71983337 144.92718506 C69.34082918 152.40924078 69.94059376 159.8863249 70.38232422 167.38134766 C70.45531235 168.52980667 70.52830048 169.67826569 70.60350037 170.86152649 C70.72833873 172.87967106 70.83691792 174.89894388 70.92298889 176.91911316 C71.43588599 184.90318832 74.07923583 191.5839028 79.6484375 197.40625 C80.7209375 198.1075 81.7934375 198.80875 82.8984375 199.53125 C83.48753906 199.92183594 84.07664062 200.31242188 84.68359375 200.71484375 C96.90385733 207.51957626 114.09567633 203.02365895 127.1550293 201.23413086 C137.36606394 199.83542864 147.58552697 198.66365863 157.8359375 197.59375 C170.71070644 196.24135689 183.5570626 194.73256366 196.3984375 193.09375 C209.59981437 191.4101971 222.80819077 189.8441262 236.03790283 188.39959717 C244.65959525 187.45717846 253.27935314 186.49720105 261.8984375 185.53125 C262.97043396 185.41116577 264.04243042 185.29108154 265.14691162 185.1673584 C271.85698764 184.41300381 278.56474822 183.64114139 285.27053833 182.84957886 C287.41376483 182.59866346 289.55754105 182.35239337 291.70187378 182.1111145 C314.486341 179.67467904 314.486341 179.67467904 332.6484375 166.53515625 C337.12407446 160.43710089 338.98226442 153.75061242 340.8984375 146.53125 C341.41590106 144.62999979 341.93420336 142.72897776 342.453125 140.828125 C344.2900887 134.06830672 346.09470439 127.29999583 347.8984375 120.53125 C358.61913215 80.36916606 358.61913215 80.36916606 361.8984375 70.53125 C360.59942505 70.5453894 360.59942505 70.5453894 359.27416992 70.55981445 C348.89650649 70.62199707 338.57393956 70.2438753 328.2109375 69.71875 C327.34025635 69.67589874 326.4695752 69.63304749 325.57250977 69.58889771 C310.38800297 68.83862016 295.22530082 67.84100251 280.06060791 66.76794434 C268.59796038 65.95780869 257.15338155 65.25755635 245.66723633 64.87036133 C238.12882667 64.60769675 230.61186676 64.16038871 223.0859375 63.65625 C209.19416992 62.72818765 195.2981504 61.89403338 181.3984375 61.09375 C180.31095215 61.03094849 179.2234668 60.96814697 178.10302734 60.90344238 C164.92560038 60.14365321 151.74695332 59.41065052 138.56640625 58.70703125 C136.67881088 58.60585747 136.67881088 58.60585747 134.75308228 58.50263977 C128.64549101 58.17545003 122.53776211 57.85148817 116.4296875 57.53344727 C114.21483751 57.41564465 111.99999344 57.29773056 109.78515625 57.1796875 C108.78332809 57.12875443 107.78149994 57.07782135 106.74931335 57.02534485 C92.95397259 56.28123546 92.95397259 56.28123546 89.5234375 53.84375 C87.4694678 50.92079311 86.8984375 49.11086628 86.8984375 45.53125 C88.35912037 42.86462975 88.35912037 42.86462975 90.8984375 40.53125 C93.98046231 40.10293794 96.46118532 39.99708794 99.5275116 40.13467407 C100.40551963 40.15511737 101.28352766 40.17556066 102.188142 40.19662344 C105.09365079 40.27625653 107.99487793 40.39884991 110.8984375 40.53125 C111.87276867 40.57214862 112.84709984 40.61304725 113.8509562 40.65518522 C121.51626263 40.98674564 129.17410401 41.42707388 136.83325195 41.87646484 C139.37650944 42.0214686 141.91979442 42.16599103 144.46310425 42.31007385 C150.60050016 42.6591677 156.73756651 43.01359725 162.87449054 43.37087987 C167.86240274 43.66118739 172.85043341 43.94937237 177.83855247 44.23610306 C178.55264018 44.27715603 179.26672788 44.318209 180.0024546 44.36050601 C181.45364668 44.44393178 182.90483887 44.52735531 184.3560312 44.61077662 C197.89994829 45.38963966 211.44343127 46.17585032 224.98678585 46.9644254 C237.36699567 47.68505279 249.74770506 48.39665454 262.12867878 49.10402553 C274.87736905 49.83248155 287.62570832 50.56681115 300.37368935 51.30757868 C307.51689 51.7225619 314.6602043 52.13526537 321.80388832 52.54185104 C328.50789774 52.92348989 335.21137342 53.31344196 341.91457748 53.70901299 C344.37386832 53.85285474 346.83331952 53.99398421 349.29293251 54.13220787 C352.64863169 54.32122137 356.0036138 54.52001098 359.3585968 54.72128296 C360.33232013 54.7738215 361.30604345 54.82636004 362.30927354 54.88049066 C367.44189573 55.19983344 372.07585431 55.68290081 376.8984375 57.53125 C379.87796868 62.00054677 379.4155472 66.40519533 378.55343056 71.6169014 C378.07749407 73.7109265 377.53408775 75.77353196 376.95825195 77.84228516 C376.75170486 78.61929779 376.54515778 79.39631042 376.33235168 80.1968689 C375.65302317 82.74108361 374.95771431 85.28061144 374.26171875 87.8203125 C373.77959515 89.60974469 373.29834323 91.39941193 372.81791687 93.18930054 C371.8100711 96.93491045 370.79483708 100.67840732 369.77368164 104.42041016 C368.47650334 109.17446992 367.19294656 113.93206431 365.91442585 118.69117165 C364.92041075 122.38836371 363.92144622 126.08420361 362.92082787 129.77961349 C362.44674407 131.53092827 361.97357252 133.2824903 361.50139809 135.03432083 C349.77682291 178.44761828 349.77682291 178.44761828 328.12109375 190.98828125 C321.11519797 194.34261923 314.21041721 196.01645419 306.52124023 196.87475586 C305.62175376 196.9829471 304.72226728 197.09113834 303.79552364 197.20260811 C300.80869024 197.55951075 297.82045802 197.90280972 294.83203125 198.24609375 C292.68387459 198.49996086 290.53581569 198.75465638 288.3878479 199.01011658 C282.58066212 199.69819876 276.77213642 200.37425636 270.96321487 201.04750824 C264.88360412 201.75354356 258.80503778 202.46846789 252.72631836 203.18212891 C243.8774806 204.21993234 235.02811437 205.25306728 226.1782198 206.28181839 C212.23654246 207.90286065 198.29826017 209.55064774 184.36174011 211.21540833 C175.99248997 212.21483102 167.62208665 213.20440718 159.25127125 214.1906271 C153.56252688 214.86112482 147.87432225 215.53559779 142.18722534 216.21994019 C136.84628352 216.86225571 131.50399195 217.49188916 126.16044235 218.11212349 C124.2133381 218.34027659 122.26674416 218.57283902 120.32075882 218.8103466 C102.76537583 220.94852568 86.19695446 222.10617787 71.03125 211.2890625 C60.58288263 202.67777071 56.04550708 192.61144907 54.53103638 179.30260849 C54.18945234 175.4263332 53.88817047 171.54809693 53.6015625 167.66748047 C53.48686343 166.17994815 53.37157199 164.69246141 53.2557373 163.20501709 C53.00873779 160.01823236 52.76570117 156.83117966 52.52575684 153.64385605 C52.14582989 148.5999042 51.7558021 143.55676389 51.36425781 138.51370239 C50.39374256 125.99278985 49.43755062 113.47078749 48.48193359 100.94873047 C47.73806381 91.2043342 46.99071046 81.46022851 46.23366928 71.71684563 C45.84483966 66.70737192 45.46290579 61.69743537 45.08627319 56.68703055 C44.85036082 53.56812276 44.60843347 50.44970253 44.36488342 47.33138275 C44.25351329 45.88965912 44.14461931 44.44774166 44.03843689 43.00562668 C43.89269078 41.03090316 43.73708707 39.05691468 43.58105469 37.08297729 C43.49700378 35.98021894 43.41295288 34.87746059 43.32635498 33.74128532 C42.67241222 28.83571481 41.78274816 24.73712818 38.8359375 20.71875 C32.84312054 16.25601397 25.31688006 16.24817835 18.06640625 16.2578125 C16.4277272 16.23755142 14.78905534 16.21670125 13.15039062 16.1953125 C10.60483608 16.17261737 8.05956759 16.15618993 5.51391602 16.15039062 C3.0309087 16.14088538 0.54913683 16.10717578 -1.93359375 16.0703125 C-2.69404495 16.07535797 -3.45449615 16.08040344 -4.23799133 16.08560181 C-7.71728034 16.02073592 -9.738411 15.79709621 -12.58081055 13.71630859 C-14.81242435 10.50986398 -14.64584981 8.34126117 -14.1015625 4.53125 C-10.67208773 -0.82289338 -5.73761239 -0.04868798 0 0 Z " fill="#020100" transform="translate(133.1015625,100.46875)"/>
<path d="M0 0 C2.3125 1.0625 2.3125 1.0625 4 3 C4.87109375 6.2265625 4.87109375 6.2265625 5 10 C3.171875 13.17578125 3.171875 13.17578125 0.75 16.3125 C-0.81394436 18.53753273 -1.85969864 20.48295684 -3 23 C-2.39184278 26.15454212 -1.33761371 27.99240944 0.52734375 30.5859375 C2 33 2 33 3 40 C67.02 40 131.04 40 197 40 C197.66 38.35 198.32 36.7 199 35 C206.03103792 25.43198963 215.21448818 18.35710236 227 16 C234.94836183 15.25589804 242.11458186 15.66773187 249 20 C254.96434583 25.2738427 258.51442052 30.23454558 259.3359375 38.296875 C259.48202974 51.21142884 255.88232247 59.90990931 246.9296875 69.1328125 C238.08914287 77.48050447 229.18862126 80.42154326 217.1328125 80.2734375 C209.53158177 79.60998843 203.52899867 76.55987826 198.40625 70.9296875 C194.87779794 66.08786718 194 61.94852376 194 56 C129.65 56 65.3 56 -1 56 C-1.66 57.98 -2.32 59.96 -3 62 C-9.2164512 71.14184001 -19.08146026 77.91945936 -30 80 C-39.87021773 80.99562595 -47.30199548 79.6283553 -55.3125 73.75 C-60.32979687 68.61602181 -63.11181436 62.25549575 -63.3125 55.0625 C-63.17236269 44.45410595 -59.38030345 35.569542 -52 28 C-44.79566097 21.36199841 -37.95613902 17.14856179 -28.06762695 16.62841797 C-21.0432031 16.25047203 -21.0432031 16.25047203 -15.33203125 12.31640625 C-13.22155665 9.12500092 -13.22155665 9.12500092 -11.578125 5.84765625 C-8.72023166 0.69071504 -5.84702908 -0.73087863 0 0 Z " fill="#000000" transform="translate(196,333)"/>
<path d="M0 0 C2.64624284 0.14021805 5.29184578 0.28689776 7.9375 0.4375 C9.06961914 0.49647461 9.06961914 0.49647461 10.22460938 0.55664062 C15.88671875 0.88671875 15.88671875 0.88671875 17 2 C17.24634732 3.99497807 17.42806567 5.99795502 17.58496094 8.00195312 C17.68906281 9.30138855 17.79316467 10.60082397 17.90042114 11.93963623 C18.01179654 13.3868364 18.12311263 14.83404114 18.234375 16.28125 C18.35330923 17.78464184 18.47269308 19.28799816 18.59249878 20.7913208 C18.8485427 24.01203265 19.10206425 27.23292973 19.3538208 30.45397949 C19.74879416 35.49886859 20.15326944 40.54296558 20.56005859 45.58691406 C20.69686991 47.28448478 20.83368021 48.98205558 20.9704895 50.67962646 C21.03843845 51.52259026 21.10638741 52.36555405 21.17639542 53.23406219 C22.02912595 63.82130965 22.87711726 74.40890834 23.70605469 84.99804688 C24.22992071 91.68876109 24.77125671 98.37782993 25.3248291 105.06616211 C25.52415869 107.51242819 25.71716283 109.95921832 25.90368652 112.40649414 C26.16205016 115.78813794 26.44166924 119.1673782 26.7265625 122.546875 C26.79624237 123.5278717 26.86592224 124.50886841 26.93771362 125.51959229 C27.42875423 131.026678 28.21753076 134.70719104 32 139 C36.23173663 142.25492045 40.04515406 142.45989877 45.20483398 142.36083984 C46.0303926 142.35184347 46.85595121 142.3428471 47.70652676 142.33357811 C59.11057331 142.0838817 70.4111267 140.59801006 81.72265625 139.2265625 C84.16333219 138.93891419 86.60412571 138.652262 89.04502869 138.36654663 C95.42265126 137.61743941 101.7986557 136.85536563 108.17437744 136.090271 C114.62641957 135.31818935 121.07984458 134.55786145 127.53320312 133.796875 C134.81320361 132.93791474 142.09306159 132.07789988 149.37184143 131.20864868 C161.57570209 129.75169441 173.78238488 128.3366177 186 127 C190.625639 126.48466916 195.25055009 125.9633851 199.875 125.4375 C201.56302734 125.24897461 201.56302734 125.24897461 203.28515625 125.05664062 C204.90357422 124.87198242 204.90357422 124.87198242 206.5546875 124.68359375 C207.50843262 124.57587646 208.46217773 124.46815918 209.44482422 124.35717773 C211.69807534 124.04220483 213.79824452 123.5543348 216 123 C217.44722143 122.81677968 218.89846082 122.66366719 220.3515625 122.53515625 C221.19340088 122.45845703 222.03523926 122.38175781 222.90258789 122.30273438 C223.80098389 122.22345703 224.69937988 122.14417969 225.625 122.0625 C232.44565545 121.43811925 239.25740464 120.77630198 246.0625 120 C255.69879569 118.90347858 265.34801938 117.94706282 275 117 C271.1463311 125.17120536 265.11256217 130.15219151 257 134 C251.43567815 135.81486879 245.98204441 136.64934327 240.1796875 137.33203125 C239.22461807 137.44875183 238.26954865 137.56547241 237.28553772 137.68572998 C234.14936475 138.06714087 231.01224537 138.44002121 227.875 138.8125 C225.66997209 139.07843641 223.46497578 139.34463486 221.26000977 139.61108398 C205.89454541 141.45848203 190.51706204 143.18881303 175.13250732 144.86880493 C161.25876586 146.38463573 147.40971012 148.04331647 133.56591797 149.8107605 C117.94386069 151.80172633 102.29958579 153.55361139 86.64355469 155.25463867 C76.98997106 156.30744782 67.36621182 157.45392373 57.75 158.8125 C30.72363053 162.44845756 30.72363053 162.44845756 19 154 C9.95329039 146.10665576 9.35221867 136.20721304 8.53515625 124.921875 C8.41675897 123.41085072 8.29727291 121.89991141 8.17677307 120.38905334 C7.85733962 116.34649712 7.55267574 112.30295545 7.25104523 108.25903702 C6.9358687 104.06487315 6.6077678 99.87172201 6.28076172 95.6784668 C5.82192123 89.78004243 5.36752636 83.88130731 4.91885757 77.98210049 C4.2162617 68.74722458 3.48164045 59.51557092 2.72265625 50.28515625 C2.44327013 46.85806502 2.16439804 43.43093238 1.88571167 40.00378418 C1.71419378 37.90429113 1.54116047 35.80492123 1.3664856 33.70568848 C0.43288157 22.43929235 -0.25695812 11.30945162 0 0 Z " fill="#FDA75E" transform="translate(194,145)"/>
<path d="M0 0 C1.2113562 -0.01134979 2.4227124 -0.02269958 3.67077637 -0.03439331 C5.01001043 -0.03175009 6.34924388 -0.02877888 7.68847656 -0.0255127 C9.1012845 -0.03285341 10.51408644 -0.04143965 11.92687988 -0.05117798 C15.76155313 -0.07340019 19.59601156 -0.07632442 23.43074036 -0.07443047 C26.63168625 -0.07431082 29.83258653 -0.08287226 33.03351974 -0.09120798 C40.58390086 -0.11044375 48.13417141 -0.1133249 55.68457031 -0.10656738 C63.47596249 -0.09992264 71.26688172 -0.12280759 79.05817795 -0.15988111 C85.74704089 -0.19055498 92.43575149 -0.20194079 99.12468338 -0.1980443 C103.12001033 -0.19597476 107.11496909 -0.20148732 111.11022949 -0.22593689 C114.86642097 -0.2481644 118.62184182 -0.24636064 122.3780365 -0.22600937 C123.75671484 -0.22259237 125.13544467 -0.2277183 126.51405334 -0.24199295 C128.39535578 -0.26012925 130.27689381 -0.24445873 132.15820312 -0.22705078 C133.2112262 -0.22776329 134.26424927 -0.2284758 135.34918213 -0.2292099 C138.07910156 0.39440918 138.07910156 0.39440918 140.45306396 2.70668793 C142.07910156 5.39440918 142.07910156 5.39440918 142.01660156 9.01940918 C140.76164125 13.53726632 140.76164125 13.53726632 138.07910156 15.39440918 C134.95680264 16.43517549 132.78844932 16.52267848 129.51296997 16.52812195 C128.35491852 16.53238693 127.19686707 16.53665192 126.00372314 16.54104614 C124.73196228 16.54059296 123.46020142 16.54013977 122.14990234 16.53967285 C120.79798286 16.5426648 119.44606423 16.54606741 118.09414673 16.54985046 C114.42054754 16.55869139 110.74697163 16.56102863 107.07336283 16.56166625 C104.00678603 16.56261556 100.94021465 16.56629415 97.87363994 16.56983835 C90.63825065 16.57798338 83.40287381 16.58042255 76.16748047 16.57971191 C68.70404597 16.5791112 61.24068377 16.58966163 53.77726758 16.60545558 C47.3695352 16.61853226 40.96182646 16.62389575 34.55408084 16.6232565 C30.72705919 16.62300154 26.90010177 16.62585181 23.07309341 16.63643456 C19.47307489 16.64611762 15.87318198 16.64619333 12.27315903 16.63891792 C10.32394554 16.63737413 8.37473206 16.64571753 6.42553711 16.65435791 C5.26184601 16.65016342 4.09815491 16.64596893 2.89920044 16.64164734 C1.89004641 16.64219211 0.88089237 16.64273687 -0.15884209 16.64329815 C-4.2455498 16.27504481 -7.01045874 15.30484888 -9.92089844 12.39440918 C-10.25683594 10.33581543 -10.25683594 10.33581543 -10.29589844 7.95690918 C-10.32425781 7.17444824 -10.35261719 6.3919873 -10.38183594 5.58581543 C-9.92089844 3.39440918 -9.92089844 3.39440918 -8.262146 1.78209686 C-5.31521603 0.03541339 -3.41708436 0.01209976 0 0 Z " fill="#000000" transform="translate(9.9208984375,140.6055908203125)"/>
<path d="M0 0 C1.01828384 -0.00700928 2.03656769 -0.01401855 3.08570862 -0.02124023 C6.45390031 -0.03885492 9.82125279 -0.02718464 13.18945312 -0.01367188 C15.52828127 -0.01636578 17.86710832 -0.02024734 20.20593262 -0.02526855 C25.10858824 -0.03116834 30.01095245 -0.02258486 34.91357422 -0.00390625 C41.20212754 0.01888316 47.48999804 0.0057627 53.77852631 -0.01819611 C58.60834918 -0.03264087 63.4380098 -0.02805407 68.26783752 -0.01768494 C70.58671652 -0.01501401 72.90561018 -0.01830019 75.22447205 -0.02760315 C78.46384781 -0.03774659 81.70211331 -0.02229742 84.94140625 0 C86.38314964 -0.01214539 86.38314964 -0.01214539 87.85401917 -0.02453613 C94.3450041 0.05835947 94.3450041 0.05835947 97.56652832 2.42272949 C99.95625877 5.98790069 99.44014121 8.29263539 98.97070312 12.51757812 C97.15907046 15.19189302 96.09309236 15.47678171 92.97070312 16.51757812 C91.58595584 16.61175214 90.19716916 16.65240702 88.80923462 16.65802002 C87.53914299 16.66658524 87.53914299 16.66658524 86.24339294 16.67532349 C85.31760941 16.67644135 84.39182587 16.6775592 83.43798828 16.67871094 C81.97171242 16.68615829 81.97171242 16.68615829 80.47581482 16.6937561 C77.23712464 16.70837959 73.99848342 16.71517974 70.75976562 16.72070312 C68.51158649 16.72645402 66.26340737 16.73221177 64.01522827 16.73797607 C59.29921235 16.74848632 54.58321349 16.75432897 49.8671875 16.7578125 C43.82209909 16.7633 37.77723561 16.78733355 31.73221779 16.81578445 C27.08769063 16.83440015 22.44321779 16.83961585 17.79865646 16.84114838 C15.56990706 16.84417739 13.34115868 16.85221423 11.11244583 16.86533356 C7.99552493 16.88237288 4.87915551 16.88051891 1.76220703 16.87402344 C0.84047195 16.88323822 -0.08126312 16.892453 -1.03092957 16.90194702 C-6.32872008 16.8673326 -10.09008092 16.45679408 -14.02929688 12.51757812 C-14.61325149 5.39333181 -14.61325149 5.39333181 -12.6295166 2.41833496 C-8.63137616 -0.50429988 -4.8336187 -0.04071887 0 0 Z " fill="#000000" transform="translate(54.029296875,180.482421875)"/>
<path d="M0 0 C1.875 1.0625 1.875 1.0625 3 3 C3.35009064 9.11312109 2.44807441 14.30009393 0.875 20.1875 C0.65126709 21.05407227 0.42753418 21.92064453 0.19702148 22.81347656 C-1.64171159 29.85424709 -3.65037161 36.84491047 -5.69116211 43.8293457 C-7.99955042 51.80182811 -9.99643258 59.84273005 -11.90795898 67.91894531 C-15.00097754 80.7154029 -15.00097754 80.7154029 -18.75 85 C-22.16349988 86.51711106 -24.45456105 85.9669379 -28 85 C-30 83.375 -30 83.375 -31 81 C-30.42242881 74.06914575 -28.44961938 67.34831666 -26.75 60.625 C-26.43426025 59.3678418 -26.11852051 58.11068359 -25.79321289 56.81542969 C-23.96540518 49.60447988 -22.04159588 42.44490993 -19.84692383 35.33740234 C-18.58592619 31.19184038 -17.5042297 27.02822569 -16.5 22.8125 C-16.24033447 21.72807617 -15.98066895 20.64365234 -15.71313477 19.52636719 C-15.20717098 17.38912012 -14.71232794 15.24920073 -14.23022461 13.10644531 C-12.99094592 7.87728329 -12.01174018 3.84223003 -8 0 C-5.06317146 -1.46841427 -3.13175678 -0.76696084 0 0 Z " fill="#050402" transform="translate(271,189)"/>
<path d="M0 0 C2.89880179 0.13404864 5.37599565 0.28092445 7.96484375 1.65625 C11.33654551 8.18892217 7.54519232 17.15709615 5.83984375 23.71875 C5.52289551 24.96052002 5.20594727 26.20229004 4.87939453 27.48168945 C2.31705419 37.43588869 -0.4250057 47.32999783 -3.33544922 57.1875 C-4.05159612 59.6502857 -4.73606836 62.12021025 -5.4140625 64.59375 C-5.74543213 65.78061401 -5.74543213 65.78061401 -6.08349609 66.99145508 C-6.49714507 68.47335489 -6.9029525 69.95747544 -7.29931641 71.4440918 C-8.69637313 76.36789459 -8.69637313 76.36789459 -12.03515625 78.59375 C-15.82621792 79.00732036 -18.1648132 79.07243868 -21.53515625 77.21875 C-23.99795902 72.90884515 -23.05412104 69.32719688 -22.03515625 64.59375 C-21.13642652 61.31623961 -20.18498006 58.06520793 -19.18579102 54.81738281 C-17.24678642 48.48098061 -15.61397006 42.0909968 -14.03515625 35.65625 C-10.1430953 19.94496146 -10.1430953 19.94496146 -8.41015625 13.40625 C-8.22839844 12.68252197 -8.04664063 11.95879395 -7.859375 11.21313477 C-6.59848044 6.54905447 -5.06131673 1.47662215 0 0 Z " fill="#050402" transform="translate(308.03515625,191.40625)"/>
<path d="M0 0 C0.64604187 -0.00861557 1.29208374 -0.01723114 1.95770264 -0.02610779 C4.08752827 -0.0487603 6.21603718 -0.04203109 8.34594727 -0.03295898 C9.8304127 -0.03819534 11.3148748 -0.04447186 12.79933167 -0.05174255 C15.90886096 -0.0621456 19.01793261 -0.05758775 22.12744141 -0.04296875 C26.10692953 -0.02578862 30.08497273 -0.04926478 34.06429958 -0.08445835 C37.12963885 -0.10645047 40.19463339 -0.10498656 43.26002693 -0.09669304 C44.72681322 -0.09587433 46.19362502 -0.10272246 47.66033745 -0.11746407 C49.71455742 -0.13494438 51.76619506 -0.1203453 53.8203125 -0.09765625 C55.57093239 -0.09621361 55.57093239 -0.09621361 57.35691833 -0.09474182 C61.43291247 0.72647315 62.95565412 2.28532289 65.47485352 5.53344727 C65.47485352 9.19088595 65.28793821 11.47290201 63.03735352 14.40844727 C59.77393313 16.75810994 57.43966454 16.67021457 53.45214844 16.69458008 C52.18710983 16.70418762 50.92207123 16.71379517 49.61869812 16.72369385 C48.230908 16.72854213 46.84311579 16.73282089 45.45532227 16.73657227 C44.03526304 16.7423244 42.61520384 16.74808213 41.19514465 16.75384521 C38.21505369 16.76435652 35.23498971 16.77019803 32.25488281 16.77368164 C28.44162428 16.77916061 24.62872387 16.80317487 20.81557751 16.83165359 C17.88071157 16.85030694 14.94593133 16.85548704 12.01101112 16.85701752 C10.60562499 16.86003952 9.2002402 16.86805285 7.79491234 16.8812027 C5.82526115 16.89831428 3.85546224 16.89453075 1.88574219 16.88989258 C0.2060157 16.89536102 0.2060157 16.89536102 -1.50764465 16.90093994 C-5.19786248 16.45151916 -7.87773214 15.18086161 -10.52514648 12.53344727 C-11.11790657 5.30177417 -11.11790657 5.30177417 -8.90635681 2.43519592 C-5.7861022 -0.05678891 -3.96661086 0.02108178 0 0 Z " fill="#000000" transform="translate(90.525146484375,220.466552734375)"/>
<path d="M0 0 C3.5 0.5 3.5 0.5 5.9375 2.0625 C8.00281173 5.28438629 7.92248594 7.81236568 7.5 11.5 C6.61290512 15.4485587 5.46734598 19.30998842 4.3125 23.1875 C3.66422433 25.4224701 3.01842193 27.65815898 2.375 29.89453125 C2.0553125 31.00521973 1.735625 32.1159082 1.40625 33.26025391 C0.09740237 37.93924315 -1.05096233 42.65179158 -2.1875 47.375 C-6.83782686 66.39188457 -6.83782686 66.39188457 -11.5 69.5 C-17.75325958 70.05832675 -17.75325958 70.05832675 -20.1875 68.23828125 C-22.84451091 64.71932335 -22.04893152 60.6843082 -21.5 56.5 C-20.66234131 53.20664107 -19.72145042 49.98030571 -18.70556641 46.73925781 C-16.37153048 39.28003433 -14.50151068 31.7281168 -12.64404297 24.13818359 C-12.17188247 22.21371806 -11.69523393 20.2903475 -11.21386719 18.36816406 C-10.72527551 16.4051083 -10.2527158 14.43801184 -9.79394531 12.46777344 C-9.43574707 11.01032715 -9.43574707 11.01032715 -9.0703125 9.5234375 C-8.7611792 8.21898682 -8.7611792 8.21898682 -8.44580078 6.88818359 C-6.70491656 2.49238352 -4.66096147 0.66585164 0 0 Z " fill="#050302" transform="translate(352.5,194.5)"/>
<path d="M0 0 C3.5 0.5 3.5 0.5 5.9375 2.0625 C8.08190437 5.40777082 7.74169812 7.55226409 7.5 11.5 C6.84860835 14.12496977 6.14518294 16.62422078 5.3125 19.1875 C3.28678032 25.70377063 1.53527562 32.24120532 -0.0625 38.875 C-4.83922371 58.39281581 -4.83922371 58.39281581 -9.5 61.5 C-13.002304 61.94710264 -14.83244416 61.90404695 -17.875 60.0625 C-20.35255244 56.15559039 -20.18155941 52.91817896 -19.5 48.5 C-18.67473009 45.30481781 -17.76411573 42.16300833 -16.77392578 39.01611328 C-15.27137431 34.22176752 -13.9524932 29.41435153 -12.75 24.53515625 C-12.449729 23.32327637 -12.14945801 22.11139648 -11.84008789 20.86279297 C-11.24538845 18.44120643 -10.66097773 16.01706647 -10.08764648 13.59033203 C-9.80993408 12.47126465 -9.53222168 11.35219727 -9.24609375 10.19921875 C-9.00560303 9.19721436 -8.7651123 8.19520996 -8.51733398 7.1628418 C-6.77593107 2.60477087 -4.83711149 0.69101593 0 0 Z " fill="#050402" transform="translate(395.5,197.5)"/>
<path d="M0 0 C3.07365786 1.80803404 4.43019732 2.86039464 6 6 C6.54650831 12.33949635 5.77886828 16.79400593 2 22 C-3.97995605 28.31465508 -9.09654234 32.22744517 -18 32.5 C-23.29598348 32.39564565 -23.29598348 32.39564565 -25.890625 30.9375 C-28.46379045 28.21645148 -29.03383127 25.76694011 -29.5625 22.125 C-28.92828258 13.78504088 -24.34373811 8.92903515 -18.21875 3.6640625 C-12.44879873 -0.66340095 -7.088167 -0.81339621 0 0 Z " fill="#827B84" transform="translate(434,365)"/>
<path d="M0 0 C1.43472656 -0.02126953 1.43472656 -0.02126953 2.8984375 -0.04296875 C5.71850283 0.19540353 7.28031337 0.63298309 9.625 2.1875 C12.3666961 6.30004415 12.33058018 9.35984615 11.625 14.1875 C9.24763493 21.55180296 5.36590468 26.40850798 -1.375 30.1875 C-6.67356023 32.6733505 -11.60641914 32.98316633 -17.375 32.1875 C-20.5625 30.375 -20.5625 30.375 -22.375 27.1875 C-23.55819393 21.35472366 -23.03626983 16.49056695 -19.9375 11.375 C-15.05356409 4.8825124 -8.17679738 0.05480427 0 0 Z " fill="#837C85" transform="translate(171.375,364.8125)"/>
<path d="M0 0 C2.4375 1 2.4375 1 4 3 C4.699477 10.58523759 2.64212655 17.51043611 0.75 24.8125 C0.44964844 26.01970703 0.14929688 27.22691406 -0.16015625 28.47070312 C-5.35374328 48.90249552 -5.35374328 48.90249552 -10 52 C-13.502304 52.44710264 -15.33244416 52.40404695 -18.375 50.5625 C-20.85309268 46.65473847 -20.68611976 43.41837466 -20 39 C-18.93367542 34.86143698 -17.71268511 30.79538102 -16.43359375 26.71875 C-15.40800958 23.42685458 -14.49816096 20.12583644 -13.66015625 16.78125 C-13.44447998 15.92128418 -13.22880371 15.06131836 -13.0065918 14.17529297 C-12.59277197 12.50433745 -12.18640031 10.83151567 -11.78833008 9.15673828 C-11.59779053 8.39603027 -11.40725098 7.63532227 -11.2109375 6.8515625 C-11.04899902 6.17947754 -10.88706055 5.50739258 -10.72021484 4.81494141 C-8.62681739 -0.46042017 -5.27994814 -0.55578401 0 0 Z " fill="#050402" transform="translate(441,202)"/>
</svg>
